<?xml version="1.0" encoding="UTF-8" standalone="no"?>
<svg
   xmlns:dc="http://purl.org/dc/elements/1.1/"
   xmlns:cc="http://creativecommons.org/ns#"
   xmlns:rdf="http://www.w3.org/1999/02/22-rdf-syntax-ns#"
   xmlns:svg="http://www.w3.org/2000/svg"
   xmlns="http://www.w3.org/2000/svg"
   viewBox="0 0 1920 1080"
   preserveAspectRatio="none"
   height="1080"
   width="1920"
   xml:space="preserve"
   id="svg2"
   version="1.1"><metadata
     id="metadata8"><rdf:RDF><cc:Work
         rdf:about=""><dc:format>image/svg+xml</dc:format><dc:type
           rdf:resource="http://purl.org/dc/dcmitype/StillImage" /></cc:Work></rdf:RDF></metadata><defs
     id="defs6"><clipPath
       id="clipPath14"
       clipPathUnits="userSpaceOnUse"><path
         id="path12"
         d="M 0,7.920007 H 1440 V 817.92 H 0 Z" /></clipPath><clipPath
       id="clipPath24"
       clipPathUnits="userSpaceOnUse"><path
         style="clip-rule:evenodd"
         id="path22"
         d="M 0,0 H 6000 V 3375 H 0 Z" /></clipPath><clipPath
       id="clipPath36"
       clipPathUnits="userSpaceOnUse"><path
         style="clip-rule:evenodd"
         id="path34"
         d="M 0,0 H 6000 V 3375 H 0 Z" /></clipPath><clipPath
       id="clipPath48"
       clipPathUnits="userSpaceOnUse"><path
         id="path46"
         d="M 0,0 H 6000 V 3375 H 0 Z" /></clipPath><clipPath
       id="clipPath54"
       clipPathUnits="userSpaceOnUse"><path
         id="path52"
         d="M 0,0 H 6000 V 3375 H 0 Z" /></clipPath><clipPath
       id="clipPath60"
       clipPathUnits="userSpaceOnUse"><path
         id="path58"
         d="M 337.5,374.45227 H 5851.8193 V 2814.508 H 337.5 Z" /></clipPath><clipPath
       id="clipPath66"
       clipPathUnits="userSpaceOnUse"><path
         id="path64"
         d="M 5833.208,374.45227 H 337.5 V 2814.5078 H 5851.5391 V 374.45227 Z m 0,2421.72453 H 356.03693 V 392.9892 H 5833.208 Z" /></clipPath><clipPath
       id="clipPath74"
       clipPathUnits="userSpaceOnUse"><path
         id="path72"
         d="M 0,0 H 5515 V 2441 H 0 Z" /></clipPath><clipPath
       id="clipPath90"
       clipPathUnits="userSpaceOnUse"><path
         id="path88"
         d="M 0,0 H 6000 V 3375 H 0 Z" /></clipPath><clipPath
       id="clipPath96"
       clipPathUnits="userSpaceOnUse"><path
         id="path94"
         d="M 0,0 H 6000 V 3375 H 0 Z" /></clipPath><clipPath
       id="clipPath102"
       clipPathUnits="userSpaceOnUse"><path
         id="path100"
         d="M 148.46126,560.49243 H 5662.7806 V 3000.5478 H 148.46126 Z" /></clipPath><clipPath
       id="clipPath108"
       clipPathUnits="userSpaceOnUse"><path
         id="path106"
         d="M 5644.1694,560.49243 H 148.46126 V 3000.5479 H 5662.5005 V 560.49243 Z m 0,2421.72437 H 166.99818 V 579.02936 H 5644.1694 Z" /></clipPath><clipPath
       id="clipPath116"
       clipPathUnits="userSpaceOnUse"><path
         id="path114"
         d="M 0,0 H 5515 V 2441 H 0 Z" /></clipPath><clipPath
       id="clipPath132"
       clipPathUnits="userSpaceOnUse"><path
         style="clip-rule:evenodd"
         id="path130"
         d="m 5184.3584,0 h 815.625 v 1288.3008 h -815.625 z" /></clipPath><clipPath
       id="clipPath144"
       clipPathUnits="userSpaceOnUse"><path
         style="clip-rule:evenodd"
         id="path142"
         d="m 0,2500.0791 h 1219.3546 v 868.75 H 0 Z" /></clipPath><clipPath
       id="clipPath156"
       clipPathUnits="userSpaceOnUse"><path
         style="clip-rule:evenodd"
         id="path154"
         d="M 0,3271.7192 H 317.67676 V 3375 H 0 Z" /></clipPath><clipPath
       id="clipPath168"
       clipPathUnits="userSpaceOnUse"><path
         style="clip-rule:evenodd"
         id="path166"
         d="m 755.19116,2396.2485 h 540.62504 v 206.25 H 755.19116 Z" /></clipPath><clipPath
       id="clipPath180"
       clipPathUnits="userSpaceOnUse"><path
         style="clip-rule:evenodd"
         id="path178"
         d="m 1093.2114,3237.0417 h 153.125 V 3375 h -153.125 z" /></clipPath><clipPath
       id="clipPath192"
       clipPathUnits="userSpaceOnUse"><path
         style="clip-rule:evenodd"
         id="path190"
         d="M 5877.9053,0 H 6000 v 141.98923 h -122.0947 z" /></clipPath><clipPath
       id="clipPath204"
       clipPathUnits="userSpaceOnUse"><path
         style="clip-rule:evenodd"
         id="path202"
         d="m 5269.0103,1112.5471 h 262.5 v 212.5 h -262.5 z" /></clipPath><clipPath
       id="clipPath216"
       clipPathUnits="userSpaceOnUse"><path
         style="clip-rule:evenodd"
         id="path214"
         d="m 5053.77,1020.1677 h 262.5 v 306.25 h -262.5 z" /></clipPath><clipPath
       id="clipPath228"
       clipPathUnits="userSpaceOnUse"><path
         style="clip-rule:evenodd"
         id="path226"
         d="m 5053.7666,0 h 262.5 v 141.19769 h -262.5 z" /></clipPath></defs><g
     clip-path="url(#clipPath14)"
     transform="matrix(1.3333333,0,0,-1.3333333,0,1090.56)"
     id="g10"><g
       transform="matrix(0.23999999,0,0,-0.23999999,0,817.91998)"
       id="g16"><g
         id="g18"><g
           clip-path="url(#clipPath24)"
           id="g20"><g
             transform="scale(3.125)"
             id="g26"><path
               id="path28"
               style="fill:#ffffff;fill-opacity:1;fill-rule:nonzero;stroke:none"
               d="M 0,0 H 1920 V 1080 H 0 Z" /></g></g></g><g
         id="g30"><g
           clip-path="url(#clipPath36)"
           id="g32"><g
             transform="scale(3.125)"
             id="g38"><path
               id="path40"
               style="fill:#ffffff;fill-opacity:1;fill-rule:nonzero;stroke:none"
               d="M 0,0 H 1920 V 1080 H 0 Z" /></g></g></g><g
         id="g42"><g
           clip-path="url(#clipPath48)"
           id="g44"><g
             clip-path="url(#clipPath54)"
             id="g50"><g
               clip-path="url(#clipPath60)"
               id="g56"><g
                 clip-path="url(#clipPath66)"
                 id="g62"><g
                   transform="translate(337,374)"
                   id="g68"><g
                     id="g70" /><g
                     id="g82"><g
                       id="g80"
                       clip-path="url(#clipPath74)"><g
                         id="g78"
                         transform="matrix(1.0295592,0,0,1.0295592,0.5,0.45227051)"><path
                           id="path76"
                           style="fill:#387085;fill-opacity:1;fill-rule:nonzero;stroke:none"
                           d="M 0,0 H 5356 V 2370 H 0 Z" /></g></g></g></g></g></g></g></g></g><g
         id="g84"><g
           clip-path="url(#clipPath90)"
           id="g86"><g
             clip-path="url(#clipPath96)"
             id="g92"><g
               clip-path="url(#clipPath102)"
               id="g98"><g
                 clip-path="url(#clipPath108)"
                 id="g104"><g
                   transform="translate(148,560)"
                   id="g110"><g
                     id="g112" /><g
                     id="g124"><g
                       id="g122"
                       clip-path="url(#clipPath116)"><g
                         id="g120"
                         transform="matrix(1.0295592,0,0,1.0295592,0.46125793,0.49243164)"><path
                           id="path118"
                           style="fill:#cd6332;fill-opacity:1;fill-rule:nonzero;stroke:none"
                           d="M 0,0 H 5356 V 2370 H 0 Z" /></g></g></g></g></g></g></g></g></g><g
         id="g126"><g
           clip-path="url(#clipPath132)"
           id="g128"><g
             transform="matrix(0,3.125,-3.125,0,5999.9834,-761.69922)"
             id="g134"><path
               id="path136"
               style="fill:#387085;fill-opacity:1;fill-rule:nonzero;stroke:none"
               d="M 0,0 H 656 V 261 H 0 Z" /></g></g></g><g
         id="g138"><g
           clip-path="url(#clipPath144)"
           id="g140"><g
             transform="matrix(0,3.125,-3.125,0,1219.3546,2500.0791)"
             id="g146"><path
               id="path148"
               style="fill:#cd6332;fill-opacity:1;fill-rule:nonzero;stroke:none"
               d="M 0,0 H 278 V 401 H 0 Z" /></g></g></g><g
         id="g150"><g
           clip-path="url(#clipPath156)"
           id="g152"><g
             transform="matrix(0,3.125,-3.125,0,317.67676,3271.7192)"
             id="g158"><path
               id="path160"
               style="fill:#ffffff;fill-opacity:1;fill-rule:nonzero;stroke:none"
               d="M 0,0 H 62 V 247 H 0 Z" /></g></g></g><g
         id="g162"><g
           clip-path="url(#clipPath168)"
           id="g164"><g
             transform="matrix(0,3.125,-3.125,0,1295.8162,2396.2485)"
             id="g170"><path
               id="path172"
               style="fill:#ffffff;fill-opacity:1;fill-rule:nonzero;stroke:none"
               d="M 0,0 H 66 V 173 H 0 Z" /></g></g></g><g
         id="g174"><g
           clip-path="url(#clipPath180)"
           id="g176"><g
             transform="matrix(0,3.125,-3.125,0,1246.3364,3237.0417)"
             id="g182"><path
               id="path184"
               style="fill:#ffffff;fill-opacity:1;fill-rule:nonzero;stroke:none"
               d="M 0,0 H 52 V 49 H 0 Z" /></g></g></g><g
         id="g186"><g
           clip-path="url(#clipPath192)"
           id="g188"><g
             transform="matrix(0,3.125,-3.125,0,6768.5303,-151.76077)"
             id="g194"><path
               id="path196"
               style="fill:#ffffff;fill-opacity:1;fill-rule:nonzero;stroke:none"
               d="M 0,0 H 94 V 285 H 0 Z" /></g></g></g><g
         id="g198"><g
           clip-path="url(#clipPath204)"
           id="g200"><g
             transform="matrix(0,3.125,-3.125,0,5531.5103,1112.5471)"
             id="g206"><path
               id="path208"
               style="fill:#ffffff;fill-opacity:1;fill-rule:nonzero;stroke:none"
               d="M 0,0 H 68 V 84 H 0 Z" /></g></g></g><g
         id="g210"><g
           clip-path="url(#clipPath216)"
           id="g212"><g
             transform="matrix(0,3.125,-3.125,0,5316.27,1020.1677)"
             id="g218"><path
               id="path220"
               style="fill:#ffffff;fill-opacity:1;fill-rule:nonzero;stroke:none"
               d="M 0,0 H 98 V 84 H 0 Z" /></g></g></g><g
         id="g222"><g
           clip-path="url(#clipPath228)"
           id="g224"><g
             transform="matrix(0,3.125,-3.125,0,5316.2666,-71.302307)"
             id="g230"><path
               id="path232"
               style="fill:#ffffff;fill-opacity:1;fill-rule:nonzero;stroke:none"
               d="M 0,0 H 68 V 84 H 0 Z" /></g></g></g></g><path
       id="path234"
       style="fill:#000000;fill-opacity:0;fill-rule:nonzero;stroke:none"
       d="m 1213.0491,783.686 h 62.8616 v 51.35103 h -62.8616 z" /><path
       id="path236"
       style="fill:#000000;fill-opacity:0;fill-rule:nonzero;stroke:none"
       d="M 1244.4799,509.06366 H 1440 v 491.66364 h -195.5201 z" /><path
       id="path238"
       style="fill:#000000;fill-opacity:0;fill-rule:nonzero;stroke:none"
       d="m 1410.3573,783.686 h 214.0942 v 70.65651 h -214.0942 z" /><path
       id="path240"
       style="fill:#000000;fill-opacity:0;fill-rule:nonzero;stroke:none"
       d="m 81,142.43819 h 1323.3693 v 585.6133 H 81 Z" /><path
       id="path242"
       style="fill:#000000;fill-opacity:0;fill-rule:nonzero;stroke:none"
       d="M 35.630703,97.78856 H 1359 v 585.6133 H 35.630703 Z" /><path
       id="path244"
       style="fill:#000000;fill-opacity:0;fill-rule:nonzero;stroke:none"
       d="m 1213.0491,499.56213 h 62.8616 v 73.52124 h -62.8616 z" /><path
       id="path246"
       style="fill:#000000;fill-opacity:0;fill-rule:nonzero;stroke:none"
       d="m 1264.7075,499.56213 h 62.8616 v 51.35102 h -62.8616 z" /><path
       id="path248"
       style="fill:#000000;fill-opacity:0;fill-rule:nonzero;stroke:none"
       d="m 181.3207,192.97343 h 129.68225 v 49.85143 H 181.3207 Z" /><path
       id="path250"
       style="fill:#000000;fill-opacity:0;fill-rule:nonzero;stroke:none"
       d="M -8.059882,9.079946 H 292.64975 V 217.89915 H -8.059882 Z" /><path
       id="path252"
       style="fill:#000000;fill-opacity:0;fill-rule:nonzero;stroke:none"
       d="m 262.13382,2.1067204 h 36.99223 V 41.027428 h -36.99223 z" /><path
       id="path254"
       style="fill:#000000;fill-opacity:0;fill-rule:nonzero;stroke:none"
       d="M -109.34038,-13.729148 H 76.24923 v 46.431824 h -185.58961 z" /></g></svg>